<svg width="100" height="100" viewBox="0 0 100 100" fill="none" xmlns="http://www.w3.org/2000/svg">
<rect width="100" height="100" rx="10" fill="#070C19"/>
<path d="M50.1087 30.4639C64.5202 19.2758 57.1238 12 57.1238 12C58.2246 23.5661 45.216 26.2971 41.7289 34.2451C39.3495 39.6686 43.3583 44.4172 50.1039 50.4024C49.5076 49.0768 48.5878 47.7888 47.6568 46.4848C44.4807 42.0372 41.1724 37.4039 50.1087 30.4639Z" fill="#E76F00"/>
<path d="M52.4095 52.8559C52.4095 52.8559 56.7451 49.3579 53.3116 45.4705C41.6724 32.2822 66.0416 26.2971 66.0416 26.2971C51.1631 33.4648 53.3843 37.7193 57.124 42.8879C61.128 48.4302 52.4095 52.8559 52.4095 52.8559Z" fill="#E76F00"/>
<path d="M65.1747 63.2873C78.53 56.4627 72.3552 49.9046 68.0451 50.7881C66.9886 51.0043 66.5176 51.1917 66.5176 51.1917C66.5176 51.1917 66.9098 50.5875 67.6588 50.3259C76.1855 47.3783 82.7429 59.0201 64.9063 63.6312C64.9063 63.6312 65.113 63.4496 65.1747 63.2873Z" fill="#5382A1"/>
<path d="M37.3847 54.6495C29.0287 53.5522 41.9664 50.5304 41.9664 50.5304C41.9664 50.5304 36.9421 50.1973 30.7629 53.1344C23.4564 56.6102 48.8365 58.1908 61.9744 54.793C63.3402 53.8758 65.2281 53.0808 65.2281 53.0808C65.2281 53.0808 59.8518 54.025 54.4977 54.4692C47.9464 55.0089 40.9129 55.1141 37.3847 54.6495Z" fill="#5382A1"/>
<path d="M40.564 61.1658C35.9043 60.692 38.9553 58.471 38.9553 58.471C26.8978 62.4063 45.6639 66.869 62.5123 62.0242C60.7214 61.4034 59.5825 60.2678 59.5825 60.2678C51.3481 61.8271 46.5897 61.7772 40.564 61.1658Z" fill="#5382A1"/>
<path d="M42.5942 68.2168C37.9382 67.6905 40.6583 66.1349 40.6583 66.1349C29.713 69.1423 47.3157 75.3555 61.251 69.4825C58.9686 68.6097 57.3343 67.6021 57.3343 67.6021C51.1181 68.7589 48.2349 68.8496 42.5942 68.2168Z" fill="#5382A1"/>
<path d="M71.7409 71.8036C71.7409 71.8036 73.7538 73.4346 69.5239 74.6964C61.4802 77.0926 36.0458 77.8162 28.9802 74.792C26.4403 73.7054 31.2033 72.1976 32.7016 71.8811C34.2641 71.5479 35.1571 71.61 35.1571 71.61C32.3324 69.6533 16.8998 75.4521 27.3181 77.1129C55.7302 81.6439 79.1106 75.0724 71.7409 71.8036Z" fill="#5382A1"/>
<path d="M76.25 75.3673C75.7838 81.3322 56.0981 82.5869 43.2787 81.78C34.9157 81.2526 33.2396 79.9346 33.2151 79.9153C41.2191 81.213 54.7138 81.4492 65.6555 79.4242C75.3537 77.6285 76.25 75.3673 76.25 75.3673Z" fill="#5382A1"/>
</svg>
