<svg width="100" height="100" viewBox="0 0 100 100" fill="none" xmlns="http://www.w3.org/2000/svg">
<rect width="100" height="100" rx="10" fill="#00CDD5"/>
<path d="M18 29.8117C18 24.0155 32.0628 19.3367 49.4251 19.3367C66.7875 19.3367 80.8503 24.0155 80.8503 29.8117C80.8503 35.6079 66.7875 40.2868 49.4251 40.2868C32.0628 40.2868 18 35.6079 18 29.8117ZM49.4251 61.2369C32.0628 61.2369 18 56.558 18 50.7618V71.7119C18 77.5081 32.0628 82.187 49.4251 82.187C66.7875 82.187 80.8503 77.5081 80.8503 71.7119V50.7618C80.8503 56.558 66.7875 61.2369 49.4251 61.2369Z" fill="#52A3D5"/>
<path d="M18 50.7618C18 56.7236 32.0628 61.5362 49.4251 61.5362C66.7875 61.5362 80.8503 56.7236 80.8503 50.7618" stroke="black" stroke-width="5" stroke-linecap="round" stroke-linejoin="round"/>
<path d="M18.1497 29.475V50.4251V71.3752C18.1497 77.1714 32.2125 81.8503 49.5749 81.8503C66.9373 81.8503 81 77.1714 81 71.3752V50.4251V29.475M18.1497 29.475C18.1497 23.6789 32.2125 19 49.5749 19C66.9373 19 81 23.6789 81 29.475M18.1497 29.475C18.1497 35.2712 32.2125 39.9501 49.5749 39.9501C66.9373 39.9501 81 35.2712 81 29.475" stroke="black" stroke-width="5" stroke-linecap="round" stroke-linejoin="round"/>
</svg>
