<svg width="100" height="100" viewBox="0 0 100 100" fill="none" xmlns="http://www.w3.org/2000/svg">
<rect width="100" height="100" rx="10" fill="#FFD600"/>
<path d="M56.1129 59.0909H61.7365V77.8537C61.7365 79.5881 61.3467 81.0947 60.5671 82.3736C59.7963 83.6525 58.7232 84.6379 57.348 85.3299C55.9728 86.0219 54.3742 86.3679 52.5522 86.3679C50.9317 86.3679 49.4601 86.0832 48.1374 85.5138C46.8235 84.9357 45.7811 84.0598 45.0103 82.886C44.2395 81.7035 43.8584 80.2187 43.8672 78.4318H49.5302C49.5477 79.1413 49.6922 79.7501 49.9638 80.2582C50.2441 80.7575 50.6251 81.1429 51.1069 81.4144C51.5974 81.6772 52.1755 81.8086 52.8413 81.8086C53.542 81.8086 54.1333 81.6597 54.6151 81.3619C55.1056 81.0553 55.4779 80.6085 55.7319 80.0217C55.9859 79.4348 56.1129 78.7121 56.1129 77.8537V59.0909ZM81.038 66.8299C80.9329 65.77 80.4818 64.9466 79.6847 64.3597C78.8875 63.7728 77.8058 63.4794 76.4393 63.4794C75.5108 63.4794 74.7268 63.6108 74.0874 63.8736C73.4479 64.1276 72.9574 64.4824 72.6158 64.9379C72.2829 65.3933 72.1165 65.9102 72.1165 66.4883C72.099 66.9701 72.1997 67.3905 72.4187 67.7496C72.6464 68.1088 72.9574 68.4197 73.3516 68.6825C73.7457 68.9366 74.2012 69.1599 74.718 69.3526C75.2348 69.5366 75.7867 69.6942 76.3736 69.8256L78.7912 70.4038C79.965 70.6665 81.0424 71.0169 82.0234 71.4549C83.0045 71.8929 83.8542 72.4316 84.5724 73.071C85.2907 73.7105 85.8469 74.4638 86.2411 75.331C86.6441 76.1982 86.8499 77.1924 86.8587 78.3136C86.8499 79.9603 86.4295 81.3881 85.5973 82.5969C84.7739 83.797 83.5826 84.7299 82.0234 85.3956C80.473 86.0526 78.6029 86.381 76.413 86.381C74.2406 86.381 72.3486 86.0482 70.7369 85.3825C69.1339 84.7167 67.8813 83.7313 66.979 82.4261C66.0856 81.1122 65.617 79.4873 65.5732 77.5515H71.0785C71.1398 78.4537 71.3982 79.207 71.8537 79.8114C72.3179 80.4071 72.9355 80.8582 73.7063 81.1648C74.4859 81.4626 75.3662 81.6115 76.3473 81.6115C77.3108 81.6115 78.1474 81.4714 78.8569 81.1911C79.5752 80.9107 80.1314 80.521 80.5256 80.0217C80.9197 79.5224 81.1168 78.9486 81.1168 78.3004C81.1168 77.696 80.9373 77.188 80.5781 76.7763C80.2277 76.3646 79.7109 76.0142 79.0277 75.7251C78.3532 75.4361 77.5255 75.1733 76.5444 74.9368L73.6143 74.201C71.3456 73.6491 69.5543 72.7863 68.2404 71.6126C66.9265 70.4388 66.2739 68.8577 66.2827 66.8693C66.2739 65.2401 66.7075 63.8166 67.5835 62.5991C68.4682 61.3815 69.6813 60.4311 71.223 59.7479C72.7647 59.0646 74.5166 58.723 76.4787 58.723C78.4759 58.723 80.219 59.0646 81.7081 59.7479C83.206 60.4311 84.371 61.3815 85.2031 62.5991C86.0353 63.8166 86.4645 65.2269 86.4908 66.8299H81.038Z" fill="black"/>
</svg>
