<svg width="26" height="55" viewBox="0 0 26 55" fill="none" xmlns="http://www.w3.org/2000/svg">
<path fill-rule="evenodd" clip-rule="evenodd" d="M15.4141 0.138162C15.7911 0.332682 16.1205 0.719451 16.3542 1.24222C16.588 1.76499 16.7141 2.39649 16.7141 3.04489V18.2793H24.1422C24.4818 18.2791 24.8151 18.4317 25.1055 18.7206C25.396 19.0095 25.6327 19.4236 25.7897 19.9178C25.9467 20.412 26.0181 20.9674 25.9961 21.5236C25.9741 22.0797 25.8595 22.6153 25.6649 23.0721L12.6657 53.541C12.4395 54.0728 12.1157 54.4723 11.7416 54.6813C11.3674 54.8904 10.9623 54.8981 10.5853 54.7033C10.2083 54.5086 9.87896 54.1215 9.64527 53.5984C9.41158 53.0754 9.2857 52.4436 9.28595 51.7951V36.5607H1.85785C1.51817 36.5609 1.18495 36.4083 0.894459 36.1194C0.60397 35.8305 0.367338 35.4164 0.210317 34.9222C0.0532952 34.428 -0.0181004 33.8726 0.00389944 33.3164C0.0258993 32.7603 0.140452 32.2247 0.335091 31.7679L13.3343 1.29903C13.5608 0.768218 13.8847 0.369763 14.2587 0.16155C14.6327 -0.0466632 15.0375 -0.0537886 15.4141 0.141209V0.138162Z" fill="#10A37F"/>
</svg>
